<?xml version="1.0" encoding="utf-8"?>
<svg xmlns="http://www.w3.org/2000/svg" width="342" height="335" viewBox="338 346 342 335">
  <path fill="#0F0D17" d="M483.307 346.643C499.423 346.025 517.9 346.449 534.236 346.434L624.073 346.473C616.83 354.402 607.013 363.49 599.308 371.218L541.322 429.474L511.708 429.415C494.772 429.391 480.302 427.462 467.114 440.341C460.616 446.686 457.409 454.646 457.298 463.67C457.085 481.047 469.017 489.663 480.211 501.118L502.831 524.132C511.506 532.828 520.792 541.864 529.121 550.806C507.803 550.045 485.708 550.868 464.325 550.537C452.592 550.151 439.835 551.534 428.354 549.127C399.254 543.025 374.385 519.167 369.538 489.489C366.682 472.001 370.165 453.552 380.579 439.137C387.108 430.099 397.182 421.537 405.346 413.919C415.928 404.025 426.432 394.046 436.856 383.985C443.186 377.76 449.652 370.859 455.786 364.436C465.042 354.746 469.615 348.849 483.307 346.643Z"/>
  <path fill="#0F0D17" d="M495.362 466.621C512.137 466.095 531.29 466.862 548.226 466.657C558.908 466.528 581.671 466.216 591.293 467.964C600.561 469.684 609.438 473.081 617.487 477.986C652.386 499.355 665.659 545.168 643.897 580.506C640.997 585.251 637.657 589.712 633.922 593.832C629.101 599.046 622.673 604.838 617.453 609.89C607.503 619.508 597.602 629.177 587.75 638.895C581.191 645.354 574.678 651.858 568.212 658.409C558.179 668.622 554.198 675.215 539.747 678.638C534.391 679.446 517.349 679.096 510.928 679.098L452.38 679.098C470.995 659.842 490.833 640.697 509.845 621.8L538.473 593.098C546.567 585.047 559.153 573.719 564.699 564.865C572.592 552.264 566.584 535.057 555.508 526.602C552.071 523.978 546.494 517.541 543.305 514.351L495.362 466.621Z"/>
  <path fill="#D6D8E0" d="M457.859 583.706C461.135 583.274 469.985 583.466 473.423 583.498L500.821 583.795C488.193 597.7 471.275 613.316 457.63 626.765C440.242 643.903 422.784 662.736 405.395 679.55L381.928 679.52L337.84 679.512C353.521 663.231 371.065 647.061 387.038 630.821C394.633 623.1 416.175 600.677 424.157 595.475C434.231 588.798 445.818 584.751 457.859 583.706Z"/>
  <path fill="#FF5E5B" d="M659.309 347.401C665.178 346.338 671.164 348.517 674.976 353.103C678.788 357.69 679.836 363.974 677.718 369.549C675.6 375.124 670.644 379.128 664.748 380.026C655.807 381.388 647.43 375.316 645.943 366.395C644.455 357.474 650.41 349.013 659.309 347.401Z"/>
</svg>
